<svg width="106" height="17" viewBox="0 0 106 17" fill="none" xmlns="http://www.w3.org/2000/svg">
<path d="M19.4478 17H8.62384C7.45584 17 6.39984 16.784 5.45584 16.352C4.51184 15.92 3.69584 15.32 3.00784 14.552C2.33584 13.784 1.81584 12.896 1.44784 11.888C1.07984 10.864 0.895844 9.768 0.895844 8.6C0.895844 7.448 1.07984 6.368 1.44784 5.36C1.81584 4.336 2.33584 3.44 3.00784 2.672C3.69584 1.888 4.51184 1.28 5.45584 0.847999C6.39984 0.415999 7.45584 0.199999 8.62384 0.199999H19.4478V2.6H8.62384C7.51984 2.6 6.56784 2.872 5.76784 3.416C4.98384 3.944 4.37584 4.664 3.94384 5.576C3.51184 6.488 3.29584 7.496 3.29584 8.6C3.29584 9.704 3.51184 10.712 3.94384 11.624C4.37584 12.52 4.98384 13.24 5.76784 13.784C6.56784 14.328 7.51984 14.6 8.62384 14.6H17.0478V9.8H6.87184V7.4H19.4478V17ZM41.741 12.2C41.741 13.08 41.469 13.888 40.925 14.624C40.397 15.344 39.677 15.92 38.765 16.352C37.853 16.784 36.845 17 35.741 17H22.325V14.6H35.741C36.397 14.6 36.997 14.496 37.541 14.288C38.085 14.064 38.517 13.768 38.837 13.4C39.173 13.032 39.341 12.632 39.341 12.2V11H28.325C27.221 11 26.213 10.728 25.301 10.184C24.405 9.64 23.685 8.92 23.141 8.024C22.597 7.112 22.325 6.104 22.325 5V0.199999H24.725V5C24.725 5.656 24.885 6.264 25.205 6.824C25.525 7.368 25.957 7.8 26.501 8.12C27.061 8.44 27.669 8.6 28.325 8.6H39.341V0.199999H41.741V12.2ZM57.7331 17H55.3331V8.6C55.3331 7.496 55.0611 6.488 54.5171 5.576C53.9891 4.664 53.2691 3.944 52.3571 3.416C51.4451 2.872 50.4371 2.6 49.3331 2.6H48.0371V17H45.6371V0.199999H49.3331C50.8531 0.199999 52.2451 0.575999 53.5091 1.328C54.7891 2.08 55.7971 3.064 56.5331 4.28C57.2691 3.064 58.2691 2.08 59.5331 1.328C60.8131 0.575999 62.2131 0.199999 63.7331 0.199999H67.4291V17H65.0291V2.6H63.7331C62.6291 2.6 61.6211 2.872 60.7091 3.416C59.8131 3.944 59.0931 4.664 58.5491 5.576C58.0051 6.488 57.7331 7.496 57.7331 8.6V17Z" fill="white"/>
<path d="M86.1292 17H70.5292V12.2C70.5292 11.32 70.7452 10.52 71.1772 9.8C71.6092 9.064 72.1852 8.48 72.9052 8.048C73.6412 7.616 74.4492 7.4 75.3292 7.4H81.3292C81.9852 7.4 82.5452 7.168 83.0092 6.704C83.4892 6.224 83.7292 5.656 83.7292 5C83.7292 4.344 83.4892 3.784 83.0092 3.32C82.5452 2.84 81.9852 2.6 81.3292 2.6H71.7292V0.199999H81.3292C82.2092 0.199999 83.0092 0.415999 83.7292 0.847999C84.4652 1.28 85.0492 1.864 85.4812 2.6C85.9132 3.32 86.1292 4.12 86.1292 5C86.1292 5.88 85.9132 6.688 85.4812 7.424C85.0492 8.144 84.4652 8.72 83.7292 9.152C83.0092 9.584 82.2092 9.8 81.3292 9.8H75.3292C74.6732 9.8 74.1052 10.04 73.6252 10.52C73.1452 10.984 72.9052 11.544 72.9052 12.2V14.6H86.1292V17ZM88.3389 0.199999H90.7389V6.2C90.7389 6.856 90.9709 7.424 91.4349 7.904C91.9149 8.368 92.4829 8.6 93.1389 8.6H102.739V0.199999H105.139V17H102.739V11H93.1389C92.2589 11 91.4509 10.784 90.7149 10.352C89.9949 9.92 89.4189 9.344 88.9869 8.624C88.5549 7.888 88.3389 7.08 88.3389 6.2V0.199999Z" fill="#FAFF00"/>
</svg>
